<?xml version="1.0" ?><svg width="512px" height="512px" viewBox="0 0 512 512" data-name="Layer 1" id="Layer_1" xmlns="http://www.w3.org/2000/svg"><title/><path d="M455.33,70.83A6,6,0,0,0,444,74.06c.09.87,7.91,87.55-141.61,167-53.85,28.61-85.58,63.73-94.29,104.4-9.41,43.93,11,80.43,19.17,92.81-19.8,14.82-41.46,30.07-65.4,45.65a6,6,0,0,0,6.49,10C193.55,477.51,216.32,461.51,237,446a143.25,143.25,0,0,0,48.53,8.65c47,0,108.48-23.81,169.58-116.57C527.84,227.64,458.32,77.18,455.33,70.83ZM445.11,331.55C368.41,448,292.52,450.31,248.27,437.24,384.58,332.09,421,252.58,422.73,248.69a6,6,0,0,0-10.92-4.8c-.41.93-37.62,81.83-175,187.06-7.36-11.45-25.31-44.37-17-83,7.94-37.05,37.62-69.46,88.23-96.35,108.63-57.7,138-119.13,145.56-152.93C469.92,144.61,498.11,251.09,445.11,331.55Z"/><path d="M191.27,316.8a5.42,5.42,0,0,0,1.72.27,6,6,0,0,0,1.72-11.66,129.59,129.59,0,0,1-38.66-19.58c10.56-8.36,33-29.32,33.35-56.86.25-21.25-12.76-41.17-38.68-59.18C74.3,116.69,106,28.93,107.42,25.22a6,6,0,0,0-8-7.53c-.9.4-89.22,41.9-73.74,174.24,5.21,44.59,20.94,75.32,46.71,91.34,15.26,9.47,31.48,12.2,45.08,12.2a107.68,107.68,0,0,0,26.74-3.41A144.15,144.15,0,0,0,191.27,316.8ZM78.67,273.14c-22.54-14-36.4-41.79-41.18-82.61C26.39,95.64,70,51.77,92.16,35.9c-6.56,30-12.8,98.81,51.76,143.67,22.45,15.62,33.75,32.17,33.56,49.21-.26,24.64-24.06,44.2-31.23,49.55-58.06-50.27-71.4-140.54-71.57-141.66A5.83,5.83,0,0,0,68,131.59a5.94,5.94,0,0,0-5.07,6.72c.64,4.64,13.52,90.76,69.84,143.88C119.49,284.35,98,285.16,78.67,273.14Z"/></svg>